<svg width="640" height="640" viewBox="0 0 640 640" fill="none" xmlns="http://www.w3.org/2000/svg">
<path d="M253.667 2.33348C214.601 8.60015 176.867 32.6001 154.067 65.8002C143.001 81.9335 133.667 105.667 130.334 126.333C124.467 162.6 133.534 203.533 154.067 233.533C177.267 267.267 214.734 291 255.001 297C287.534 302.067 317.534 296.867 347.267 281.4C417.134 244.867 446.601 158.333 413.134 87.5335C397.401 54.3335 375.801 32.2001 343.667 16.3335C314.601 1.93348 285.134 -2.59985 253.667 2.33348Z" fill="white"/>
<path d="M525.001 194.2C520.068 196.467 515.668 201.133 513.801 206.067C512.868 208.333 512.335 223 512.335 243.667V277.533L476.468 277.933C442.601 278.333 440.335 278.467 436.868 281.133C429.801 286.333 427.668 290.6 427.668 299C427.668 307.4 429.801 311.667 436.868 316.867C440.335 319.533 442.601 319.667 476.335 320.067L512.201 320.467L512.601 356.333C513.001 390.067 513.135 392.333 515.801 395.8C521.001 402.867 525.268 405 533.668 405C542.068 405 546.335 402.867 551.535 395.8C554.201 392.333 554.335 390.067 554.735 356.333L555.135 320.467L591.001 320.067C624.735 319.667 627.001 319.533 630.468 316.867C637.535 311.667 639.668 307.4 639.668 299C639.668 290.6 637.535 286.333 630.468 281.133C627.001 278.467 624.735 278.333 591.001 277.933L555.135 277.533L554.735 241.667C554.335 207.933 554.201 205.667 551.535 202.2C550.068 200.2 547.268 197.267 545.401 195.933C540.868 192.6 530.335 191.667 525.001 194.2Z" fill="white"/>
<path d="M245 343.667C151.667 355 70.7337 412.467 29.0003 497C14.067 527.267 5.13365 559.133 1.66698 593.933C-1.13302 622.067 0.33365 629.533 10.2003 636.867L13.8003 639.667H277.667H541.534L545.134 636.867C554.867 629.667 556.334 622.867 553.667 594.867C547.4 527.133 519.267 468.067 470.2 420.067C448.334 398.733 427.534 384.067 399.667 370.333C352.067 346.867 297.267 337.4 245 343.667Z" fill="white"/>
</svg>
