<svg width="35" height="35" viewBox="0 0 35 35" fill="none" xmlns="http://www.w3.org/2000/svg">
<g clip-path="url(#clip0_940_5)">
<path d="M16.2698 0.0751991C14.554 0.266605 12.8928 0.922855 11.4846 1.96875C10.801 2.47461 9.63208 3.66406 9.13989 4.35449C8.42896 5.35254 7.9231 6.43946 7.61548 7.62207C7.34204 8.66113 7.3147 9.13281 7.3147 13.3779V17.5H6.82935C6.56958 17.5 6.20728 17.5342 6.02954 17.582C5.30493 17.7529 4.62817 18.4297 4.45728 19.1543C4.34106 19.6123 4.34106 32.8877 4.45728 33.3457C4.62817 34.0703 5.30493 34.7471 6.02954 34.918C6.48755 35.0342 28.5129 35.0342 28.9709 34.918C29.6956 34.7471 30.3723 34.0703 30.5432 33.3457C30.6594 32.8877 30.6594 19.6123 30.5432 19.1543C30.3723 18.4297 29.6956 17.7529 28.9709 17.582C28.7385 17.5205 26.3391 17.5 20.1731 17.5H11.6897V13.4805C11.6897 10.2129 11.7102 9.37891 11.7922 8.98926C12.2366 6.89063 13.8704 5.16797 15.9758 4.56641C16.7415 4.34766 18.259 4.34766 19.0247 4.56641C21.0618 5.14746 22.6477 6.76758 23.1741 8.80469C23.2151 8.96875 23.2766 9.4336 23.3108 9.84375C23.3928 10.8418 23.5774 11.1973 24.1995 11.5254C24.4045 11.6348 24.5959 11.6553 25.5325 11.6553C26.6057 11.6553 26.6331 11.6553 26.9543 11.4639C27.1321 11.3613 27.3645 11.1426 27.467 10.9922C27.6243 10.7461 27.6516 10.623 27.679 10.0898C27.7473 8.20996 27.0706 6.05664 25.8606 4.35449C25.3684 3.66406 24.1995 2.47461 23.5159 1.96875C21.4377 0.437504 18.9221 -0.218746 16.2698 0.0751991Z" fill="white"/>
</g>
<defs>
<clipPath id="clip0_940_5">
<rect width="35" height="35" fill="white"/>
</clipPath>
</defs>
</svg>
