<svg width="32" height="32" viewBox="0 0 32 32" fill="none" xmlns="http://www.w3.org/2000/svg">
<g clip-path="url(#clip0_283_9)">
<path d="M15.1246 0.0375061C13.8246 0.206255 12.5809 0.668756 11.4996 1.39375C10.8996 1.79376 9.79336 2.90001 9.39336 3.50001C8.81836 4.35626 8.42461 5.26251 8.17461 6.31251C8.05586 6.79376 8.04336 7.09375 8.01836 9.41875L7.98711 12H7.31836C6.91836 12 6.49961 12.0375 6.28086 12.0938C5.20586 12.375 4.37461 13.2125 4.09336 14.2938C3.95586 14.8313 3.95586 29.1688 4.09336 29.7063C4.37461 30.7875 5.20586 31.625 6.28086 31.9063C6.60586 31.9875 7.80586 32 15.9996 32C26.2871 32 25.6809 32.025 26.4434 31.6188C27.1621 31.2313 27.7809 30.3875 27.9371 29.5688C27.9746 29.35 27.9996 26.6375 27.9996 21.9438C27.9996 14.0063 28.0121 14.3313 27.6496 13.6125C27.4246 13.1688 26.8809 12.6188 26.4434 12.3813C25.9184 12.1 25.4496 12 24.6809 12H24.0121L23.9809 9.41875C23.9559 7.09375 23.9434 6.79376 23.8246 6.31251C23.4371 4.70625 22.7621 3.50001 21.6309 2.36876C20.4746 1.21251 19.2559 0.537506 17.6871 0.181255C17.1684 0.0625057 15.6184 -0.0249939 15.1246 0.0375061ZM17.0621 2.77501C17.6496 2.90001 18.4059 3.20625 18.8684 3.51251C20.0809 4.30626 20.9871 5.65 21.2434 7.03125C21.2871 7.25 21.3121 8.3125 21.3121 9.7V12H15.9996H10.6871V9.66875C10.6871 7.13125 10.7121 6.91876 11.0559 6.03126C11.6809 4.40626 13.1559 3.16251 14.9059 2.78126C15.4059 2.66876 16.5559 2.66876 17.0621 2.77501Z" fill="white"/>
</g>
<defs>
<clipPath id="clip0_283_9">
<rect width="32" height="32" fill="white"/>
</clipPath>
</defs>
</svg>
