<svg width="30" height="30" viewBox="0 0 30 30" fill="none" xmlns="http://www.w3.org/2000/svg">
<path d="M6.50458 2.49609C6.01239 2.5957 5.16279 3.02344 4.71747 3.38086C3.76825 4.14844 3.19404 5.28516 3.12372 6.5332C3.07685 7.34766 3.1999 7.93359 3.58661 8.73047C3.84443 9.26367 3.94989 9.4043 4.41864 9.87305C4.86396 10.3184 5.03974 10.4531 5.50849 10.6816C6.21747 11.0273 6.72138 11.1504 7.47138 11.1504C8.26825 11.1504 9.00654 10.9688 9.58661 10.6348C9.81513 10.5 9.83271 10.4707 9.96161 9.97852C10.2194 8.98242 10.8757 7.88672 11.5847 7.2832L11.9128 7.00195L11.8776 6.47461C11.7956 5.27344 11.2155 4.13672 10.2839 3.38086C9.83271 3.01172 8.99482 2.60156 8.46747 2.49024C7.95771 2.38477 7.00849 2.38477 6.50458 2.49609Z" fill="#BCBCBC"/>
<path d="M21.5039 2.49023C21.0059 2.60156 20.1621 3.02344 19.7168 3.38086C18.8379 4.0957 18.2461 5.19727 18.1289 6.35742L18.0938 6.71484L18.3457 6.88477C19.4648 7.61719 20.4082 9.13477 20.5957 10.4707C20.6309 10.752 20.6484 10.7754 20.877 10.8633C21.4219 11.0684 21.8906 11.1504 22.5 11.1504C23.2793 11.1504 23.7715 11.0332 24.4922 10.6816C24.9609 10.4531 25.1367 10.3184 25.582 9.87305C26.0508 9.4043 26.1562 9.26367 26.4141 8.73047C26.8008 7.93359 26.9238 7.34766 26.877 6.5332C26.7715 4.66992 25.541 3.11719 23.7246 2.54883C23.2852 2.4082 22.0137 2.37305 21.5039 2.49023Z" fill="#BCBCBC"/>
<path d="M14.4902 6.97265C13.4121 7.16601 12.3984 7.78124 11.748 8.64257C11.3789 9.13476 11.1914 9.49218 11.0039 10.0781C10.8926 10.4531 10.8691 10.6406 10.8691 11.3379C10.8691 12.2402 10.9512 12.5859 11.3203 13.3184C12.5742 15.8027 15.9023 16.4883 18.0234 14.6953C19.6465 13.3242 20.0742 11.1211 19.084 9.22851C18.9023 8.87695 18.7031 8.62499 18.3105 8.23241C17.7188 7.64062 17.1621 7.30663 16.4062 7.08984C15.9023 6.94921 14.959 6.89062 14.4902 6.97265Z" fill="#BCBCBC"/>
<path d="M4.5062 11.6016C2.2855 12.0703 0.57456 13.7988 0.117529 16.0371C0.00620077 16.5937 0.000341401 16.8047 0.0120602 19.1953L0.0296383 21.7559L0.908545 22.0078C1.89292 22.2949 3.36362 22.623 4.24839 22.7637C4.83433 22.8574 6.30503 23.0273 6.5394 23.0273C6.66245 23.0273 6.66831 23.0039 6.69761 21.8086C6.72105 20.748 6.74448 20.5195 6.87925 20.0098C7.17222 18.8906 7.88706 17.666 8.71323 16.8633C9.35776 16.2363 10.4593 15.5625 11.18 15.3457C11.3148 15.3047 11.4261 15.2578 11.4261 15.2344C11.4261 15.2168 11.3441 15.123 11.2445 15.0234C10.5472 14.3613 9.92612 12.9961 9.80894 11.8594L9.76792 11.4844L7.38901 11.4902C5.32651 11.4902 4.94565 11.5078 4.5062 11.6016Z" fill="#BCBCBC"/>
<path d="M20.6607 11.6133C20.6432 11.6895 20.6139 11.8945 20.5963 12.0703C20.4967 12.9551 20.0397 14.0039 19.4186 14.7715C19.2076 15.0352 19.0436 15.252 19.0553 15.2637C19.067 15.2695 19.2252 15.334 19.4068 15.3984C20.9772 15.9785 22.2897 17.1621 23.0572 18.6914C23.567 19.7109 23.7193 20.4082 23.7721 21.9551C23.8072 23.0625 23.8072 23.0859 23.9303 23.0566C24.0006 23.0449 24.317 23.0156 24.6393 22.998C26.3619 22.8867 28.3365 22.4355 29.5494 21.873L30.0006 21.6621V19.1426C30.0006 16.8398 29.9889 16.582 29.8775 16.0371C29.4264 13.7812 27.7096 12.0586 25.4654 11.5957C25.0025 11.502 24.6568 11.4844 22.8111 11.4844H20.6842L20.6607 11.6133Z" fill="#BCBCBC"/>
<path d="M12.7559 16.0605C11.3379 16.207 9.94336 16.957 9.0293 18.0586C8.60156 18.5684 8.07422 19.5879 7.89844 20.2441C7.77539 20.6895 7.76953 20.8477 7.74609 23.502L7.72852 26.291L8.44922 26.502C9.98438 26.9531 11.2793 27.2285 12.7148 27.4219C13.8809 27.5801 16.4473 27.6445 17.4844 27.5449C19.4238 27.3516 21.0938 26.959 22.2539 26.4199L22.7461 26.1914L22.7168 23.543C22.6875 20.5898 22.6699 20.4434 22.2832 19.5117C21.4629 17.5605 19.7051 16.2715 17.584 16.0547C16.8867 15.9844 13.4297 15.9902 12.7559 16.0605Z" fill="#BCBCBC"/>
</svg>
