<svg width="683" height="683" viewBox="0 0 683 683" fill="none" xmlns="http://www.w3.org/2000/svg">
<path d="M274.667 23.3335C235.601 29.6001 197.867 53.6001 175.067 86.8002C164.001 102.933 154.667 126.667 151.334 147.333C145.467 183.6 154.534 224.533 175.067 254.533C198.267 288.267 235.734 312 276.001 318C308.534 323.067 338.534 317.867 368.267 302.4C438.134 265.867 467.601 179.333 434.134 108.533C418.401 75.3335 396.801 53.2001 364.667 37.3335C335.601 22.9335 306.134 18.4001 274.667 23.3335Z" fill="#61E002"/>
<path d="M266 364.667C172.667 376 91.7337 433.467 50.0003 518C35.067 548.267 26.1337 580.133 22.667 614.933C19.867 643.067 21.3336 650.533 31.2003 657.867L34.8003 660.667H298.667H562.534L566.134 657.867C575.867 650.667 577.334 643.867 574.667 615.867C568.4 548.133 540.267 489.067 491.2 441.067C469.334 419.733 448.534 405.067 420.667 391.333C373.067 367.867 318.267 358.4 266 364.667Z" fill="#61E002"/>
<path d="M639.675 244.392C635.328 245.759 635.162 245.883 579.843 301.202L525.394 355.609L500.757 330.973C477.86 308.158 475.914 306.295 473.347 305.094C466.763 302.03 459.765 302.982 454.548 307.702C450.407 311.429 448.379 317.392 449.372 322.774C450.407 328.323 449.745 327.619 484.112 361.862C514.173 391.84 516.036 393.62 518.562 394.738C521.792 396.146 526.222 396.56 529.204 395.774C534.255 394.407 532.102 396.436 596.654 331.884C663.484 264.971 659.675 269.07 660.71 263.149C662.118 254.909 656.942 246.918 648.619 244.392C646.3 243.688 641.911 243.688 639.675 244.392Z" fill="#61E002"/>
</svg>
