<svg width="30" height="30" viewBox="0 0 30 30" fill="none" xmlns="http://www.w3.org/2000/svg">
<g clip-path="url(#clip0_97_187)">
<path d="M13.6519 0.0585938C10.7573 0.339844 8.08545 1.40625 5.7417 3.21094C4.59912 4.08984 3.1167 5.74219 2.26123 7.08984C1.89209 7.66992 1.17139 9.14648 0.913574 9.84961C0.626465 10.6348 0.315918 11.8418 0.163574 12.7734C-0.0180664 13.916 -0.0180664 16.084 0.163574 17.2266C0.427246 18.8438 0.843262 20.1445 1.55225 21.5918C2.32568 23.168 3.12842 24.2871 4.41748 25.582C5.7124 26.8711 6.83154 27.6738 8.40771 28.4473C9.85498 29.1562 11.1558 29.5723 12.7729 29.8359C13.9155 30.0176 16.0835 30.0176 17.2261 29.8359C18.8433 29.5723 20.144 29.1562 21.5913 28.4473C23.1675 27.6738 24.2866 26.8711 25.5815 25.582C26.8706 24.2871 27.6733 23.168 28.4468 21.5918C28.9624 20.543 29.2202 19.8574 29.5015 18.8027C29.8706 17.3965 29.9585 16.6289 29.9585 15C29.9585 13.3711 29.8706 12.6035 29.5015 11.1973C29.2202 10.1426 28.9624 9.45703 28.4468 8.4082C27.6733 6.83203 26.8706 5.71289 25.5815 4.41797C24.2866 3.12891 23.1675 2.32617 21.5913 1.55273C20.1499 0.84375 18.814 0.421875 17.2554 0.175781C16.394 0.0410156 14.4722 -0.0234375 13.6519 0.0585938ZM16.394 2.4082C19.2534 2.71875 21.8667 3.99023 23.9409 6.05859C26.3726 8.49023 27.6558 11.584 27.6558 15C27.6558 18.416 26.3726 21.5098 23.9409 23.9414C21.5093 26.373 18.4155 27.6562 14.9995 27.6562C11.5835 27.6562 8.48975 26.373 6.05811 23.9414C3.62646 21.5098 2.34326 18.416 2.34326 15C2.34326 11.584 3.62646 8.49023 6.05811 6.05859C8.10303 4.01367 10.7456 2.72461 13.5347 2.4082C14.1792 2.33789 15.7378 2.33203 16.394 2.4082Z" fill="#BCBCBC"/>
<path d="M14.4954 7.08398C14.2142 7.21289 13.9857 7.49414 13.8861 7.82226C13.8392 7.99218 13.8275 9.08203 13.8392 11.7187C13.8568 15.2871 13.8626 15.3867 13.9798 15.6152C14.0736 15.8027 14.5423 16.1895 16.4408 17.625C17.724 18.6035 18.8958 19.4707 19.0423 19.5586C20.0208 20.1445 21.1751 19.0957 20.6829 18.0762C20.5658 17.8301 20.3255 17.6367 18.3626 16.1602L16.1712 14.5195V11.25C16.1712 8.96484 16.1536 7.92773 16.1068 7.78711C15.9368 7.28906 15.5091 6.97265 14.9993 6.97265C14.8529 6.97265 14.6243 7.02539 14.4954 7.08398Z" fill="#BCBCBC"/>
</g>
<defs>
<clipPath id="clip0_97_187">
<rect width="30" height="30" fill="white"/>
</clipPath>
</defs>
</svg>
