<svg width="24" height="24" viewBox="0 0 24 24" fill="none" xmlns="http://www.w3.org/2000/svg">
<g clip-path="url(#clip0_1208_13)">
<path d="M11.3681 0.240289C8.4794 0.386774 5.67862 1.65826 3.55166 3.78521C1.82315 5.51373 0.645413 7.73443 0.211819 10.084C-0.772556 15.4161 1.83487 20.6719 6.68057 23.1387C9.34073 24.4922 12.5048 24.8028 15.4052 23.9883C16.4423 23.6954 17.9188 23.0333 18.6688 22.5118L19.0146 22.2774L22.5595 25.8047C25.7587 28.9981 26.1396 29.3555 26.4853 29.5254C28.2724 30.3868 30.2997 28.8868 29.9481 26.9649C29.8075 26.2032 29.8134 26.209 25.9638 22.3594L22.4013 18.7969L22.8817 17.8536C23.6903 16.2598 24.0595 14.9297 24.206 13.1544C24.4638 9.9317 23.3036 6.59771 21.0712 4.17193C19.9403 2.9356 18.704 2.03326 17.1981 1.33599C16.2958 0.919977 15.9618 0.79693 15.1239 0.585992C13.87 0.269586 12.7743 0.169977 11.3681 0.240289ZM13.4481 4.2481C16.7001 4.78131 19.3368 7.2481 20.0868 10.459C20.7196 13.1602 19.9403 15.9844 18.0185 17.9825C16.4364 19.6231 14.3739 20.5079 12.1181 20.5079C9.94424 20.5079 7.89346 19.6524 6.33487 18.0997C5.18643 16.9454 4.44229 15.5626 4.09073 13.9278C3.90908 13.0723 3.90908 11.5899 4.09658 10.7286C4.57705 8.47857 5.83096 6.65045 7.73526 5.41998C8.70791 4.78716 9.75088 4.41216 11.0751 4.20123C11.4618 4.13677 12.9677 4.16607 13.4481 4.2481Z" fill="#AFAFAF"/>
</g>
<defs>
<clipPath id="clip0_1208_13">
<rect width="24" height="24" fill="white"/>
</clipPath>
</defs>
</svg>
