<svg width="44" height="44" viewBox="0 0 44 44" fill="none" xmlns="http://www.w3.org/2000/svg">
<g clip-path="url(#clip0_120_147)">
<path d="M21.3256 1.69164C20.809 1.88331 20.4256 2.16665 20.1756 2.52498C20.0506 2.71664 18.8423 5.44998 17.5007 8.59998C15.0757 14.2833 15.059 14.3333 14.8007 14.375C14.659 14.3916 11.809 14.6583 8.45898 14.9583C1.93398 15.55 2.00898 15.5333 1.40898 16.0666C0.933984 16.4833 0.708984 17.0166 0.708984 17.75C0.717318 18.5166 0.867318 18.85 1.55898 19.5083C1.82565 19.7666 3.90065 21.6 6.16732 23.5833C8.43398 25.5666 10.3923 27.2833 10.5173 27.4083L10.7507 27.625L9.36732 33.6666C7.91732 39.9916 7.85065 40.4 8.11732 41.0333C8.54232 42.0583 9.59232 42.6333 10.6257 42.4166C11.109 42.3166 11.3257 42.1916 17.6257 38.425C19.8673 37.0833 21.784 35.9416 21.8757 35.9C22.0173 35.8333 22.909 36.3416 27.2923 38.9666C30.184 40.6916 32.709 42.1833 32.909 42.275C33.1507 42.3833 33.459 42.4333 33.809 42.4333C35.0673 42.4416 36.0423 41.4583 36.0257 40.2083C36.0173 39.8833 35.534 37.6166 34.634 33.6666L33.2506 27.625L33.7673 27.1583C34.059 26.9 36.184 25.0333 38.5006 23C40.8173 20.975 42.809 19.1666 42.9423 18.975C43.734 17.8 43.209 16.1333 41.884 15.625C41.6507 15.5333 39.5257 15.3083 35.2673 14.925C31.8173 14.6083 28.9756 14.3333 28.959 14.3166C28.9423 14.3 27.8256 11.7166 26.4923 8.58331C25.1507 5.44164 23.9423 2.70831 23.8006 2.50831C23.284 1.78331 22.1173 1.39998 21.3256 1.69164ZM24.3673 10.4C25.634 13.375 26.7673 15.9333 26.8757 16.0916C27.1257 16.425 27.6673 16.8 28.0423 16.9083C28.1923 16.95 30.9423 17.2166 34.159 17.5083C37.3673 17.8 40.0006 18.0666 40.0006 18.0916C40.0006 18.1166 38.0756 19.825 35.734 21.8833C33.384 23.9333 31.334 25.75 31.1756 25.9166C30.7673 26.3333 30.584 26.7833 30.584 27.3916C30.584 27.7666 30.9423 29.4916 31.8756 33.6C32.584 36.725 33.1507 39.2916 33.1423 39.3083C33.1256 39.325 30.884 38 28.159 36.3666C25.434 34.7333 23.034 33.325 22.809 33.2416C22.3423 33.0583 21.734 33.0416 21.284 33.2C21.1006 33.2583 18.6923 34.6666 15.9257 36.325C13.159 37.9833 10.8757 39.325 10.8673 39.3083C10.8507 39.2916 11.4173 36.7166 12.1257 33.5916C13.0507 29.5166 13.4173 27.7583 13.4173 27.3916C13.4173 26.7666 13.2173 26.3 12.7757 25.8583C12.6007 25.6833 10.5507 23.875 8.22565 21.8416C5.90065 19.8 4.00065 18.1166 4.00065 18.0833C4.00065 18.0583 6.63398 17.8 9.84232 17.5083C13.059 17.2166 15.809 16.95 15.959 16.9083C16.334 16.8 16.8757 16.425 17.1173 16.0916C17.2257 15.9416 18.359 13.3833 19.634 10.4083C20.9007 7.43331 21.9673 4.99998 22.0007 4.99998C22.034 4.99998 23.0923 7.43331 24.3673 10.4Z" fill="white"/>
</g>
<defs>
<clipPath id="clip0_120_147">
<rect width="42.6667" height="42.6667" fill="white" transform="translate(0.666992 0.666626)"/>
</clipPath>
</defs>
</svg>
