<svg xmlns="http://www.w3.org/2000/svg" width="512" height="512" viewBox="0 0 512 512" version="1.1"><path d="M 218.241 1.995 C 212.431 5.537, 211.601 8.161, 206.449 39.279 L 201.611 68.500 191.556 71.818 C 186.025 73.643, 177.072 77.316, 171.660 79.981 L 161.820 84.825 137.940 67.854 C 113.124 50.219, 110.820 49.062, 103.306 50.469 C 100.040 51.080, 96.207 54.455, 76.283 74.261 C 63.514 86.954, 52.326 98.902, 51.420 100.811 C 50.322 103.123, 49.925 105.866, 50.229 109.031 C 50.636 113.272, 52.507 116.343, 67.700 137.722 L 84.714 161.664 79.923 171.582 C 77.288 177.037, 73.640 186.025, 71.816 191.556 L 68.500 201.611 39.279 206.449 C 8.161 211.601, 5.537 212.431, 1.995 218.241 C 0.113 221.327, 0.007 223.335, 0.007 256 C 0.007 288.665, 0.113 290.673, 1.995 293.759 C 5.537 299.569, 8.161 300.399, 39.279 305.551 L 68.500 310.389 71.831 320.444 C 73.663 325.975, 77.316 334.956, 79.949 340.403 L 84.735 350.306 67.710 374.263 C 52.507 395.656, 50.636 398.728, 50.229 402.969 C 49.925 406.134, 50.322 408.877, 51.420 411.189 C 52.326 413.098, 63.514 425.046, 76.283 437.739 C 96.207 457.545, 100.040 460.920, 103.306 461.531 C 110.820 462.938, 113.124 461.781, 137.939 444.146 L 161.819 427.176 171.659 431.976 C 177.072 434.616, 186.022 438.289, 191.549 440.138 L 201.598 443.500 206.443 472.721 C 211.601 503.837, 212.432 506.464, 218.241 510.005 C 221.160 511.785, 223.301 511.993, 238.750 511.996 L 256 512 256 436.638 L 256 361.275 247.436 360.580 C 215.623 357.999, 185.502 339.891, 167.985 312.817 C 161.704 303.109, 157.242 292.829, 153.753 280.031 C 150.614 268.514, 150.682 243.831, 153.887 231.567 C 165.539 186.977, 202.816 155.040, 247.436 151.420 L 256 150.725 256 75.362 L 256 0 238.750 0.004 C 223.301 0.007, 221.160 0.215, 218.241 1.995 M 421 451.500 C 416.903 455.625, 413.775 459, 414.050 459 C 414.325 459, 417.903 455.625, 422 451.500 C 426.097 447.375, 429.225 444, 428.950 444 C 428.675 444, 425.097 447.375, 421 451.500" stroke="none" fill="#fccb34" fill-rule="evenodd"/><path d="M 256 75.362 L 256 150.725 247.436 151.420 C 202.816 155.040, 165.539 186.977, 153.887 231.567 C 150.682 243.831, 150.614 268.514, 153.753 280.031 C 157.242 292.829, 161.704 303.109, 167.985 312.817 C 185.502 339.891, 215.623 357.999, 247.436 360.580 L 256 361.275 256 436.638 L 256 512 272.750 511.998 C 286.701 511.997, 290.082 511.705, 292.980 510.248 C 299.392 507.027, 300.135 504.821, 305.371 473.443 C 308.027 457.524, 310.493 444.222, 310.850 443.883 C 311.208 443.544, 314.972 442.088, 319.215 440.648 C 327.317 437.899, 344.024 430.649, 347.594 428.333 C 349.509 427.090, 350.535 427.567, 359.594 433.909 C 372.595 443.010, 375.416 445.009, 379.477 448 C 394.769 459.261, 398.266 461.319, 402.829 461.737 C 405.398 461.973, 408.479 461.791, 409.675 461.333 C 413.092 460.025, 458.565 415.437, 460.377 411.619 C 463.267 405.528, 462.173 399.085, 457.109 392.366 C 456.224 391.192, 454.825 389.213, 454 387.968 C 453.175 386.723, 450.022 382.284, 446.993 378.102 C 443.964 373.921, 439.769 368.025, 437.670 365 C 435.572 361.975, 432.320 357.324, 430.443 354.664 L 427.032 349.828 429.525 345.362 C 432.920 339.281, 436.733 330.264, 440.460 319.500 L 443.577 310.500 473.244 305.478 C 505.318 300.049, 506.890 299.516, 510.248 292.929 C 511.811 289.865, 511.997 285.903, 511.998 255.700 C 512 218.457, 511.970 218.255, 505.766 213.829 C 503.082 211.914, 497.271 210.611, 473.086 206.500 L 443.670 201.500 440.947 193.500 C 437.690 183.931, 431.635 169.763, 428.932 165.390 L 426.985 162.240 430.420 157.370 C 432.309 154.691, 435.572 150.025, 437.670 147 C 440.719 142.606, 447.478 133.143, 453.758 124.476 C 462.525 112.379, 463.835 107.482, 460.195 100.426 C 459.081 98.267, 447.893 86.304, 435.335 73.841 C 410.919 49.614, 409.946 48.936, 401.554 50.298 C 398.433 50.804, 389.548 56.409, 375.500 66.732 C 372.200 69.157, 365.104 74.221, 359.731 77.986 L 349.962 84.832 343.731 81.651 C 335.658 77.528, 329.370 74.884, 319.500 71.460 C 315.100 69.933, 311.208 68.418, 310.850 68.092 C 310.493 67.767, 308.035 54.525, 305.389 38.668 C 300.285 8.083, 299.456 5.468, 293.759 1.995 C 290.840 0.215, 288.699 0.007, 273.250 0.004 L 256 0 256 75.362 M 248.677 212.134 C 230.852 214.620, 214.683 231.062, 212.095 249.333 C 207.053 284.937, 243.369 311.478, 275.439 295.628 C 302.216 282.394, 308.524 247.295, 288.022 225.617 C 277.853 214.865, 263.751 210.032, 248.677 212.134" stroke="none" fill="#fca931" fill-rule="evenodd"/></svg>